<?xml version="1.0" encoding="utf-8"?>
<!-- Generator: Adobe Illustrator 20.1.0, SVG Export Plug-In . SVG Version: 6.00 Build 0)  -->
<!DOCTYPE svg PUBLIC "-//W3C//DTD SVG 1.1//EN" "http://www.w3.org/Graphics/SVG/1.1/DTD/svg11.dtd">
<svg version="1.1" id="Layer_1" xmlns="http://www.w3.org/2000/svg" xmlns:xlink="http://www.w3.org/1999/xlink" x="0px" y="0px"
	 viewBox="0 0 581.1 87" style="enable-background:new 0 0 581.1 87;" xml:space="preserve">
<style type="text/css">
	.st0{opacity:0.96;}
	.st1{opacity:0.75;}
	.st2{fill:#00418B;}
	.st3{opacity:0.46;enable-background:new    ;}
	.st4{opacity:0.71;clip-path:url(#SVGID_4_);}
	.st5{enable-background:new    ;}
	.st6{font-family:'MyriadPro-Regular';}
	.st7{font-size:6.1996px;}
	.st8{letter-spacing:28.1;}
	.st9{letter-spacing:33.7;}
</style>
<g>
	<g>
		<g>
			<g>
				<defs>
					<path id="SVGID_1_" d="M5.3,1.4v7.7c13.1,19.1,50.6,56.2,130,30.9c0,0,53.8-24,106.9,19.1c0.3,0.3,0.1,0.4,0.4,0.7
						c5.3,4.8,11.2,16.4,18.9,18v-5.1h0.5c-0.9,0-2.3-0.8-3.1-0.4V72c0.9-2.7,2.5-4.4,3.5-6.5h-3.5v-1.8c0.9-2.7,2.7-5.5,4.5-8.3
						v0.1h-2.7c4.7-8.7,15.7-19.4,24.6-22.2c4.4-0.3,8.1-0.8,12.5-1.3c8.9-3.1,17-11.7,27.8-13.1v0.4c-2.7,7.9-7,11.7-11.2,17.4
						c-6.4,9-8.4,24.7-8.6,40.9c10.2-1.3,16.5-11.9,23.2-18c1-1,2.2-2,3.3-2.8C387.4,11.3,443.8,36,443.8,36
						C534.1,64.4,571,16.2,580,0.6c0,0-0.6,1,0.4,1L5.3,1.4z"/>
				</defs>
				<clipPath id="SVGID_2_">
					<use xlink:href="#SVGID_1_"  style="overflow:visible;"/>
				</clipPath>
			</g>
		</g>
	</g>
	<g>
		<g class="st0">
			
				<image style="overflow:visible;opacity:0.86;enable-background:new    ;" width="633" height="82" xlink:href="../../../../stufff/logos/logo-ideas/raven/FB15592EC29D63D5.png"  transform="matrix(0.9504 0 0 1.4047 -6.251 -13.5901)">
			</image>
			<g>
				<g class="st1">
					<g>
						<g>
							<g>
								<g>
									<polygon class="st2" points="5.3,1.2 8.8,1.4 10,0.9 									"/>
									<path class="st2" d="M22.2,3.3L28.3,3c-3.5-1.7,1.2-1.1-8.3-2.4c-3.4,0.3-10.8,0.8-9.8,1.5c2.4,0,5.9-0.7,9.5-0.6
										C18.3,2,14.5,2,12.6,2.7c5.8,0.6,3.6-0.4,10-0.1L22.2,3.3z"/>
									<path class="st2" d="M29.5,1.6c-0.6,0.3-1.2,0.6-1.1,0.8C29,2.1,31.9,1.9,29.5,1.6z"/>
									<path class="st2" d="M33.1,1.4C37,1.4,33,2,33.4,2.1L37.8,1L33.1,1.4z"/>
									<path class="st2" d="M49.1,1.6c0.7,0,1.2,0,1.8-0.1C50.4,1.3,49.8,1.4,49.1,1.6z"/>
									<path class="st2" d="M57,1.4c-1.6-0.4-3.6-0.1-6.1,0c0.1,0,0.1,0,0.3,0c2.2,0.3,0.1,1.1-3.4,0.8c-3.7,0.1-3.4-0.6-6.7-0.1
										l4.5,0.6C51.4,2.8,54.7,1.7,57,1.4z"/>
									<path class="st2" d="M49.1,1.6c-0.7,0-1.3,0-2.1,0C48,1.7,48.6,1.6,49.1,1.6z"/>
									<polygon class="st2" points="41.1,1.4 39.1,1.6 39.5,1.9 									"/>
									<path class="st2" d="M70.1,1.3c-0.9,1-9.4-0.1-10.5,0.7c5.2,0,9.3,0.7,8.2,1.3L73.6,3C75.6,2.6,73.2,1.9,70.1,1.3z"/>
									<path class="st2" d="M81.4,4c0.4-0.1,0.9-0.1,1.3-0.1C82.1,3.8,81.5,4,81.4,4z"/>
									<path class="st2" d="M110.3,2.1L96.9,3.3c1.2-0.3,0.8-0.7,3.8-0.8C94.9,2.3,94.1,3,89.2,2.8c-1.5-1,8.6-0.1,5.8-1
										c-3.4,0-8.6,0.1-11.4,0.8L78,2l1.9,1.1c2.2,0.3,4.5-0.8,5.8-0.1c0.7,0.4-1.5,0.6-3.1,0.7c3.7-0.1,9.9,1,17,0.8
										C107.2,4.4,105.4,2.7,110.3,2.1z"/>
									<polygon class="st2" points="110.9,3.4 111.8,3.8 111.2,3.3 									"/>
									<path class="st2" d="M125.6,2l-7,0.7c-0.8-0.1-1.1-0.3-1.7-0.6c0.3,0.3-1.6,0.7-1.3,0.8c3.2,1,8.6-0.3,12.3-0.4
										c9.9,0.4-0.5,0.6,3.4,1.4c-2.8,0-2.9-0.3-6.7-0.3c6.1,1.1,13.7,0.1,17.6-0.1c-1.1-0.1-1.4-0.4-3.5-0.3l4-0.3
										C138.4,2,134.9,1.9,125.6,2z"/>
									<path class="st2" d="M113.1,2c2.6-0.1,3.6,0,3.8,0.1C116.1,1.9,115.3,1.7,113.1,2z"/>
									<path class="st2" d="M144.2,3.4c-0.5,0-1.1,0-2.1,0C142.6,3.5,143.2,3.5,144.2,3.4z"/>
									<path class="st2" d="M140.2,2.3l4.9,0.1L143.2,2C142.5,2,140.1,2,140.2,2.3z"/>
									<path class="st2" d="M327.2,3.7c-0.5-0.4-2.3-0.6-6-0.6c0.5-0.6,5.3-0.4,7.6-0.7c-4.9-0.3,0.1-0.6-1.1-1.1
										c-5.6,0-8.1,0.7-14,0.6c0.3-0.1,0.2-0.4-0.6-0.6c-7.1,0.3-19.3,0.8-26.3,0.4c-6.7-0.1-11.8,0-19.1,0.3
										c-24.3-0.3-49.8,0.3-75.9-0.3l-3.7,1c-1.2-0.6-6.3,0-5.5-0.7c1.4,0.1,2.8,0,4.5,0c-5.7-0.7-15,0.1-21.7-0.1
										c0.8,0.1,1.9,1.1-0.2,1.3c0.6-1.1-8,0-9.9-1.3c-6.7-0.3-0.3,1-7.2,0.8c-0.8,0.7,6.7,0.3,8,0.8C153.8,4,149.6,3.3,150,4
										c11.2,0.3,32.1-1.1,49.2-1.4l-1.8,0.6c8.7-0.4,23-0.4,30,0.6c-1.6-0.6,12.9,0.3,11.7-1c2.2,0.3,2.9,0.3,6.1,0.4l0.9-0.4
										c4.5,0,3.8,0.7,8.9,0.7c-3.3-0.6,0.4-0.7,1.9-1.3c5.9,0.7,12.8,1.3,18.1,1.8c-0.4-0.1-0.9-0.4-2.7-0.7
										c3.6,0.1,2.9-0.4,3.9-0.6c3.4,0,3.1,0.7,2.9,1.1c6.4,0.3,9.1-1.3,13.9-0.7l-1.7-0.6c6.6-0.1,12,0.6,19.2,0.3
										c3.5,0.8-5.9,0.7-8.9,1.1c1.4,0.1,4.6,0.3,5.5,0.6c3.1-0.4,8.3-1,12.1-1.4C315.5,3.7,324.7,3.7,327.2,3.7z"/>
									<path class="st2" d="M307.2,4.2c-0.9,0.1-1.6,0.3-2.1,0.3c0.7,0,1.3-0.1,2.4,0C307.6,4.4,307.5,4.2,307.2,4.2z"/>
									<path class="st2" d="M327.2,3.7c0,0,0.1,0,0.2,0.1C328.1,3.8,327.8,3.8,327.2,3.7z"/>
									<path class="st2" d="M285.8,1.6c0.3,0,0.7,0,1,0c0.4,0,0.8,0,1.1,0H285.8z"/>
									<path class="st2" d="M280.4,4.4c-1.4-0.1-3.3-0.4-5.5-0.7C275.5,4,276,4.2,280.4,4.4z"/>
									<path class="st2" d="M236.5,3.7c-1.3,0.1-0.6,0.3-1.5,0.4C237.7,4.2,238.6,4,236.5,3.7z"/>
									<polygon class="st2" points="315.1,4.4 320.5,4.1 322.6,4 									"/>
									<path class="st2" d="M425.9,1.2C421,0.5,414,0.9,408,0.7c-10.9,0.4-1.3,1.5-11.7,1.7l1.8-1.5C387.8,1,373,0.6,364.3,2
										c-0.8-0.1-2.6-0.4,0.1-0.6c-6.9,0-3.6,2.1-12.8,1.7c8.6-1-2.9-0.8-0.5-1.8l1.3-0.1c-5.9,0.1-13.6,0.6-17.5,0.6
										c-0.2,0.4,3.2,1-2,1c2.1,0.1,1.2,0.6,1,0.8c5.3-0.4,8.3-0.1,11.5-0.7c2.9,0.6-2,0.1,1,0.7l4.3-0.4c3.1,0.1-3.2,0.6,1.7,0.6
										c0.6-0.3,4.6-0.6,8.5-0.6l-1,0.1c2.9-0.1,7.1,0,5.7-0.8l3.5,0.8l-0.6-0.6c8.1,0.3,11.1,1.5,21.6,0.8
										c-2.5-0.1-0.2-0.4,1.1-0.6c-4.4-0.4-5.3,0.4-9.5,0.6C381.1,3,388,2.3,383.1,2c5.5,0.7,10.4-0.1,12.7,1.3
										c6.6,0.1,9.1-0.6,15.9-0.3l-0.4,0.3c1.2-1,5.4,0.4,10.5-0.6l-3.5-0.1c0.2-0.4,1.9-0.4,4.3-0.4c-0.3,0.1-0.3,0.1,0.5,0.3
										c0.8-0.7,8.3-0.8,9.2-1c-3.2-0.1-7.1,0.4-10.8,0.6C423.3,1.6,422.7,1,425.9,1.2z"/>
									<path class="st2" d="M357.7,3.7l2.1-0.3C359,3.4,358.2,3.4,357.7,3.7z"/>
									<path class="st2" d="M455.9,2.4c4.2,0.1-1.1,0.6,2.9,0.8c4.3-0.4-4.9-1-0.8-1.7c2.6,0.4,6.7-0.3,8.6-0.3
										c-1.9,0.4-0.8,1.3,0,1.4c1.6-0.3,5.3,0.1,8.1,0.3c-6.8-0.6,5.7-0.3-0.4-1c0.5-0.6,6.8-0.8,9.5-0.6
										c-0.4,0.4-2.5,0.4-4.2,0.4c-1.4,0.7,4.4,0.4,5.3,1c6.5-1,27.3-1,21.4-2.5c-2.3-0.3-4.2,0.1-6.6,0.1
										c6.7,0.3,0.1,0.8-0.6,1.1c-2.9-0.3-7.8,0.3-6.7-0.3l4.6-0.6c-14.6-0.3-34.7-0.1-51.6,0h7.3c-0.9,0.4-4.3,0.4-6.9,0.7
										l3.6,1.1c-2.1-0.1-4.1,0.1-3.9-0.3c-2.6,0.4-1.4,0.7,0.2,1.1c-5.4,0.1-6.4-0.3-10.5,0.4c9,0.8,7.7-0.7,18.1,0L455.9,2.4z"
										/>
									<polygon class="st2" points="436,3 438.2,2.4 434.9,2.7 									"/>
									<path class="st2" d="M439.6,0.6c0.1,0.3-1.2,0.3-1.1,0.6C442.6,1.3,442.1,1,439.6,0.6z"/>
									<path class="st2" d="M490.4,3l5.4-0.1l-3.5-0.1C492.4,2.8,491.2,2.8,490.4,3z"/>
									<path class="st2" d="M528.7,0.2c-7.6,0.1-10.8,0.6-19.4,0c-4.2,0.7,2,1.3,0.2,2c4.3,0.1,3.7-1,8.2-1.3
										c1.6,0.6,6.5-0.1,10.6,0C527.8,0.7,527.8,0.5,528.7,0.2z"/>
									<path class="st2" d="M554.7,2.4c3.4,0,6.9-0.4,9.7-0.1c-0.4,0.4-2.5,0.6-4.6,0.4c1.3,0.8,3.8-0.1,7.6,0.4
										c-0.3-0.1-1.7-0.3-0.7-0.4c4.7,0.1,6-0.1,7.6-0.3c0.6,0,1.2-0.1,2.3-0.1c0.6,0,1.1,0,1.9,0c0.1,0,0,0-0.1,0
										c-0.1,0-0.1,0-0.2,0c-0.1,0-0.2-0.3-0.1-0.3c0,0,0-0.1,0.1-0.1l0,0l-0.1,0c-0.1,0.1-0.2,0.3-0.3,0.4c-0.3,0.4-0.7,1-1,1.5
										c-0.7,1.3-1.7,2.8-1.1,2.8c-5.4,5.9-2.8,2.9-9.6,9.4c0.4,0.1,2.9-1.7,3.1-1c-4.9,4.6-7.5,6.7-9.7,8.4c-1,0.8-2,1.7-3.1,2.5
										c-1.1,0.7-2.5,1.5-4.2,2.5c0.8-0.6,1.6-1.3,3.4-2.4c-0.6-0.1-2,0.8-3.7,2.1c-0.9,0.6-1.8,1.4-2.9,2.1c-1,0.6-2,1.3-3,1.7
										l0.2-1c-1.8,1-4.1,2.7-6.7,3.7c-1.3,0.6-2.7,1.1-3.9,1.7c-0.7,0.3-1.3,0.6-1.9,0.7c-0.7,0.3-1.2,0.3-1.8,0.4l1-0.7
										c-2.4,0.8-4.8,1.7-7.3,2.5c-0.7,0.1-1.2,0.4-1.9,0.6l-1.9,0.4c-1.2,0.3-2.6,0.6-3.8,0.8c-1.2,0.3-2.5,0.6-3.7,0.8
										c-1.2,0.3-2.5,0.3-3.6,0.4c-2.4,0.3-4.7,0.6-6.7,0.8c0,0-1.1,0-2.2,0c-1.1-0.1-2.2-0.3-2.2-0.3c-5.7,0.3-2.9,0.4,0.4,0.6
										c1.6,0.1,3.3,0,4.1,0.1c0.8,0.1,0.7,0.3-1.4,0.8c-1.3-1.4-5.9,0.6-12.5,0c-3-0.6,6.6-0.3,3.2-1c-0.8,0.4-1.6,0.4-2.7,0.4
										c-0.6,0-1.1,0-1.9,0c-0.7-0.1-1.4-0.1-2.4-0.1c0.8-0.7-7.2-0.8-5-1.4c0,0-3,0-6.1,0.1c-3-0.1-6.1-0.4-6.1-0.4
										c-1.9-0.8-5.4-1.4-8.1-1.7c6.6,1.3-1.9,0.8,5.4,2.5c2.7,0.4,5.8,1,9.2,1.4c3.4,0.3,7.1,0.6,10.8,0.8c1,0,1.9,0.3,2.9,0.1
										h2.9c1.9,0,3.8,0,5.7,0c3.8,0.1,7.4-0.3,10.7-0.4c0.7-0.6,2.9-0.7,5.1-1c2.2-0.4,4.6-0.8,5.6-1.4c0.4,0.3,1.3,0.3,1.7,0.6
										c2.2-0.6,3.1-0.7,3.3-0.8c0.2-0.1-0.2,0-0.9,0c-1.3,0.1-3.5,0.4-2.5,0c1-0.3,1.8-0.4,2.7-0.6c0.9-0.1,1.5-0.3,2.1-0.4
										c1.2-0.1,1.9-0.1,1.7,0.1c6.1-1.8,0.7-0.4,3.7-2c0,0,1,0,2.1,0c0.6,0,1-0.1,1.4-0.1s0.7-0.1,0.7-0.1
										c3.4-1.5,7.1-2.9,10.8-5.3c3.7-2,7.4-4.6,11.2-7.4c1.8-1.5,3.7-2.9,5.5-4.6c0.9-0.8,1.8-1.7,2.7-2.7
										c0.9-0.8,1.8-1.7,2.7-2.7c1.7-2,3.5-3.8,5.1-5.9l1.2-1.5l0.6-0.8l0.7-0.8c0.9-1.3,1.7-2.4,2.5-3.7l1.2-2.4L580,1l0.1-0.1
										l0,0l0,0c0.2-0.1,0.1,0,0.1-0.1l0,0l0,0v0.1c0,0.1,0,0.3,0,0.3c0.1,0.1,0.2,0.1,0.4,0.3c0.1,0,0.2,0,0.2,0h0.1l-0.1,0.1
										l-0.1,0.1h-0.1h-0.1h-0.6c-0.8,0-1.4-0.1-2.2-0.1c-0.9,0-1.7,0-2.6,0c-3,0-6-0.1-8.9-0.1l1.7,0.7c-10-0.4-16.7,1.5-25.6,0
										l-3,0.6c1.6-0.3-1.7-1.1,0.9-1.5c-2.8,0.3-5.6,0-8.5,0.1l5,0.3c-3.5,0.6-7.3,0.3-8.6-0.3c-7.5,0.7,4.5,1.3,6.1,1.8
										c10.5-1.3,10.5,1.3,20.6,0.7C561.3,3.1,554.4,2.8,554.7,2.4z"/>
									<path class="st2" d="M541.7,0.5c-0.7,0-1.1,0.1-1.5,0.1C540.8,0.6,541.3,0.6,541.7,0.5z"/>
									<path class="st2" d="M461.2,40.2c-0.8-0.1-1.7-0.3-2.9-0.7c-0.5,0-0.4,0,0.2,0.1C459,39.8,460,40.1,461.2,40.2z"/>
									<polygon class="st2" points="528.2,0.9 528.2,0.9 528.3,0.9 									"/>
									<polygon class="st2" points="523.2,2.7 526,2.7 525.6,2.4 									"/>
									<path class="st2" d="M432.3,31.1l-0.1,0.4C432.5,31.4,432.7,31.4,432.3,31.1z"/>
									<path class="st2" d="M353.1,41.2l1.6-0.8C354.2,40.6,353.6,40.9,353.1,41.2z"/>
									<path class="st2" d="M258.2,72c0,0.1,0,0.1,0,0.3v1.1l0.7-0.3c0.2-0.1,0.5-0.1,0.7,0c0.2,0,0.5,0.1,0.8,0.1
										c0.3,0,0.7,0.1,1,0.1c-0.1,0-0.2,0-0.4,0l0,0c0,0.7,0,1.5,0.1,2.4c0,0.4,0,1,0,1.5c-0.4-0.1-0.8-0.1-1.1-0.3
										c-0.4-0.1-0.8-0.3-1.1-0.4c-0.4-0.3-0.9-0.4-1.2-0.6c-1.6-1-3-2.1-4.1-2.9h0.5c-2.4-2-9.4-10.5-5.3-4.4l1.2,1.1
										c2.7,2.9,3.7,3.9,4.5,5.1c0.9,1,1.3,2.1,3.9,3.8c1.1,0.4,2.3,0.8,3.3,1.1c0.3,0,0.5,0.1,0.8,0.1h0.2c0-0.1-0.1-0.3-0.1-0.4
										l-0.2-0.7c-0.2-1-0.4-2-0.6-2.8l0.7-0.4c0.2,0,0.1-0.1,0.1-0.3V75c0-0.4,0-0.7,0-1.1v-0.3l-0.1-0.1l-0.2-0.3
										c-0.1-0.1-0.3-0.4-0.4-0.6l0,0c0.1,0.1,0.2,0.1,0.3,0.3c-0.3-0.1-0.6-0.6-0.9-1.1c-0.5,0-0.9-0.1-1.2-0.1s-0.8,0-1.1,0.1
										l0.7,0.7v-0.4l-0.1,0.3c0.6-2,1.7-3.7,2.9-5.6c0.2-0.3,0.3-0.6,0.4-0.7l0.5-0.8h-0.8c-1.4,0-1-0.4-0.5-0.6
										c-0.5,0-0.9,0-1.2,0c-0.2,0-0.4,0-0.6,0c-0.1,0-0.1,0-0.1-0.1v-0.1v-0.3c-0.1-0.4,0-0.8,0.2-1.3c0.1-0.4,0.3-0.8,0.4-1.3
										c0.1-0.1,0.2-0.4,0.3-0.7l0.3-0.7c0.2-0.4,0.5-1,0.7-1.4c0.5-1,1-2,1.6-2.9h-0.1v0.1l0.1-0.1h-0.1c-0.3-0.6-1.2-0.8-2.6-1
										l0.6,1.8c0.9-1.3,1.9-3.1,3.2-4.9s2.9-3.8,4.5-5.8c3.3-3.8,7.2-7,10.4-8.1c0.6-0.4,1.2-0.8,1.8-1.1c0.7-0.4,1.3-0.7,2-1
										c0.7-0.3,1.4-0.6,2.2-0.8c0.2-0.1,0.7-0.1,1-0.1s0.8-0.1,1.2-0.1c3.2-0.3,6.6-0.7,9.9-1.4c-0.9,0.3-1,0.4-0.5,0.4
										c0.2,0,0.5,0,1,0c0.5-0.1,0.9-0.3,1.3-0.4c1.8-0.7,3.8-1.7,3.1-1c0.4-0.6,1.7-1.4,3.4-2.5c1.7-1.1,3.9-2.4,6.1-3.7
										s4.4-2.4,6-3.2c0.9-0.4,1.5-0.8,2.1-1.1c0.6-0.3,0.9-0.7,1-1c2-0.6,2.9-0.6,3.4-0.7c0.5,0,0.7-0.1,0.8-0.1
										c0.1,0,0.1,0,0.1,0.1c0,0,0,0.1,0,0.3c-0.1,0.3-0.3,0.8-0.7,1.8c-0.2,0.6-0.5,1.1-0.9,1.8c-0.4,0.7-0.9,1.5-1.5,2.5
										c-0.1-0.1,0.2-0.6,0.6-1.3c0.3-0.6,0.6-1.1,0.7-1.4c-0.6,1-1.1,1.8-1.6,2.7c-0.6,1-1,1.7-1.5,2.5c-1,1.5-2.1,2.9-3.5,4.2
										c-3.2,3.9-3.3,4.6-3.1,4.6c0.1,0,0.3,0,0.2,0.3c-0.1,0.3-0.4,0.8-1,2.4c-1.3,2.4-2.1,4.4-2.6,5.6c-0.6,1.4-0.9,2.2-1,2.9
										c-0.3,0.7-0.5,1.3-0.8,2c-0.3,0.7-0.7,1.8-1.1,3.4c0.2,0.7-0.1,2.8-0.4,5.6c-0.3,2.8-0.6,6.2-0.6,9.4
										c0.1-1.5,1-10.1,0.8-4.5c-0.4,3.7-0.5,6.2-0.5,8.3c0,0.4,0,1,0,1.4c0,0.3,0,0.7,0,1c0,0.6,0.1,1.1,0.1,1.5
										c0.4-0.1,0.8-0.3,1-0.3c0.2,0,0.4-0.1,0.5-0.3c0.1,0,0.2-0.1,0.3-0.1s0.3-0.1,0.5-0.1c1.2-0.6,2.7-1.3,4.8-2.7
										c2.2-1,0.2,0.6-1.5,1.5c-0.9,0.6-1.6,0.8-1.7,0.8c-0.1,0,0.6,0,2.5-0.8c-1.3,0.8-2.7,1.7-3.9,2.1c-0.7,0.3-1.1,0.4-1.7,0.6
										c-0.3,0.1-0.6,0.1-0.9,0.3h-0.2h-0.1V78v-0.6c0-1.7-0.1-3.1-0.1-4.5c0-1.4-0.1-2.7-0.1-3.9c-0.1,1.4-0.2,2.9-0.2,4.5v1.1
										c0,0.4,0,1,0,1.4c0,1,0,1.8,0,2.8c0,0.1,0,0,0.1,0h0.1h0.3l0.5-0.1l1-0.1c0.7-0.1,1.3-0.4,1.8-0.6c1.1-0.4,2.2-0.8,3.2-1.5
										c4.3-2.5,8-6.7,11.3-10.7c3.9-4.1-1.8,2.5,1.3-0.7c1.8-1.8,3.3-3.4,4.8-4.8c1.5-1.4,2.8-2.7,4.1-3.9
										c1.3-1.1,2.6-2.4,3.9-3.5c1.3-1,2.8-2.1,4.4-3.1l-1.1,1.4c0.5-0.4,1-0.8,1.6-1.4c0.7-0.4,1.3-1,2.2-1.5
										c0.8-0.6,1.6-1.1,2.6-1.7c1-0.6,1.9-1.1,2.9-1.7c4-2.2,8.6-4.4,12.3-6.2c-1,0.1-1.7,0.3-0.8-0.4c0.1,0.7,2.7-0.6,6.4-2.2
										c3.6-1.5,8.3-3.4,12.3-3.7c-0.8-0.8,6.8-2.9,11.7-3.7c1.7,0,1.4,0.4,1.3,0.7c-2,0-3.4,0.3-4.7,0.6
										c-1.1,0.3-2.1,0.6-2.9,0.8c-1.7,0.7-3.1,1.4-6.2,2.4c2.6-0.8,6-1.5,9.3-2.1c1.7-0.3,3.3-0.6,4.8-0.7c1.5-0.3,2.9-0.4,4-0.7
										l-1.7,0.8c1.8-0.1,3.1-0.3,4.2-0.4c1-0.1,1.8-0.4,2.7-0.6c1.6-0.4,3.3-0.7,7-0.3l-0.8,0.4c7.6,0.1,15.9,1.4,23.7,3.5
										c3.9,1,7.6,2.2,11.2,3.5c3.6,0.8,6.9,1.7,10,2.2c1-0.1-4.8-2.8-5.1-3.2c-1.8-0.4-3.4-0.7-4.9-1c-0.3,0-0.7-0.1-1-0.3
										c-0.4-0.1-0.8-0.1-1-0.3c-0.7-0.1-1.3-0.3-2-0.6c-2.7-0.6-5.1-1-7.9-1.4l0.2-0.8c-1.3,0.1-8-0.7-4.4,0.4
										c-2.3-0.3-3.1-0.6-4-0.8c-1-0.3-1.9-0.7-4.6-0.7c0.5-0.8,3.6-0.4,3.7-1.1c0,0-1.1,0-2.3-0.1c-1.1,0-2.3,0-2.3,0
										c1.4-0.1-2.7-0.6-1.3-0.7c-4.3,0.1-7.1-0.1-10.2-0.3c-1.5-0.1-2.9-0.1-4.7-0.1s-3.5,0.1-5.7,0.4c0,0,1.2,0,2.5-0.1
										c1.2,0,2.5,0,2.5,0c0,0.4-2.9,0.6-4.9,0.8c-1.2-0.3-2.2-0.3-3.3-0.3c-1.2,0-2.7,0.1-4.9,0.4c-3.8,1-5.9,2.2-11,3.5
										c0.5-0.6-1.6-0.1-4.1,0.4c-2.4,0.7-5,1.5-5.5,1.3c-0.5,0.7-2.9,1.7-5.3,2.7c-2.4,1.1-4.7,2.1-4.9,2.5
										c-1.3,0.7-2.9,1.5-4.1,2.1c-1.2,0.6-2.2,1-2.2,0.7c0.4-0.3,1.1-0.8,1.9-1.3c0,0-0.7,0.3-1.3,0.7c-0.7,0.4-1.3,0.7-1.3,0.7
										c0.2-0.3,0.1-0.3,0.4-0.4c-1.1,0.7-1.7,1.1-2.4,1.7c-0.7,0.4-1.4,1-2.9,1.7c0-0.3,1.5-1.3,2.9-2.1
										c-1.6,0.8-2.9,1.8-4.3,2.8c-0.7,0.6-1.3,1-2,1.4c-0.7,0.6-1.2,1-1.8,1.5c-1.2,1-2.4,2-3.6,2.8c-1.1,1-2.4,1.8-3.7,2.7
										c-0.2,0.3-0.8,0.8-1.5,1.5c-0.7,0.7-1.5,1.5-2.3,2.2c-1.5,1.5-2.7,3.1-1.8,2.7c-1.8,1.4-1.5,0.1-5.9,5.2
										c-1.1,1.7-2.4,2.9-3.8,4.2c-1.4,1.3-3,2.4-4.8,3.8c1.2-1,1.8-1.5,2-1.8c0.3-0.3,0.3-0.3,0.2-0.3s-0.2,0.1,1.7-2
										c-1.6,1.3-3.5,3.1-5.9,4.5c-0.6,0.3-1.2,0.7-1.9,1c-0.3,0.1-0.7,0.3-1,0.4c-0.2,0.1-0.4,0.1-0.7,0.3
										c-0.2,0-0.5,0.1-0.7,0.1c-0.2,0.1-0.1-0.1-0.1-0.3v-0.6c0-0.7,0-1.3,0.1-2.7c0.2-1,0.3-1,0.5-2c0-3.5-0.2-7.7,0.8-11
										l-0.5,0.3c0.5-3.2,1.1-7,2.2-10.5c1-3.7,2.5-7,4.1-9.4c0,0,0-0.1,0.1-0.3c0.1-0.1,0.2-0.4,0.4-0.7c0.3-0.6,0.7-1.4,1.1-2.2
										c0.9-1.5,1.8-3.1,1.8-3.1c1.8-1.8,3.7-3.9,5.4-6.6c0.2-0.3,0.5-0.7,0.7-1l0.3-0.6c0.1-0.1,0.3-0.4,0.4-0.7l0.8-1.4
										c0.2-0.4,0.4-1,0.7-1.4c0.2-0.6,0.3-1,0.5-1.4c0.2-0.4,0.2-0.8,0.3-1.3s0.2-0.8,0.1-1.3c-0.2-0.1-0.5-0.1-0.7-0.3
										c-4.9,1.1-7.5,2.8-9.9,4.5c-2.7,1.3-6.5,3.5-6.6,3.2c0.6-0.4,1.5-1.3,2.7-2.1c-1.9,1.1-4,2.2-5.9,3.4s-3.5,2.1-4.6,3.1
										c-1.9,1.1-2.8,1.1-3.3,1.3c-0.4,0-0.5-0.1-1-0.1c-0.4,0-1-0.1-1.7,0c-2.1,0.6-4.7,0.8-7.4,1.1c-0.7,0-1.4,0.1-2.1,0.1h-0.6
										c-0.2,0-0.4,0.1-0.6,0.1l-1,0.4c-0.7,0.3-1.4,0.6-2.1,0.8c-0.7,0.3-1.3,0.7-2,1c-5.2,2.9-9.3,6.9-10,8.7
										c2.9-2.8,8.6-7.6,15-10c-1.6,0.8-0.3,0.7-2.6,1.7c-3,1.5-5.3,3.1-7.5,4.6c-2.2,1.7-4.4,3.5-6.9,6.5l0.1-1.7
										c-2.9,2.7-5.5,6-7.6,10l-0.9,1.7l1.4-0.1c0.9,0,1.8-0.1,2.7-0.1h0.6v-0.8v-0.1l-0.1-2.1l-1,1.5c-0.7,1.1-1.4,2.4-2.1,3.5
										c-0.3,0.6-0.7,1.3-1,1.8c-0.4,0.7-0.7,1.4-1,2.1c-0.1,0.4-0.2,0.7-0.4,1c0,0.1-0.1,0.3-0.1,0.6v0.6v1.1v0.1h0.1h0.2h0.4
										c1,0,2.1,0,3,0l-0.2-0.4c-1.2,2.1-2.8,3.8-3.9,6.2v0.1v0.3L258.2,72z"/>
									<path class="st2" d="M318.4,20.3c0,0-0.3,0.1-0.8,0.1c-0.5,0.1-1,0.3-1.6,0.6c-1.1,0.4-2.4,0.8-2.4,0.8l0.6,0.3
										C315.6,21.2,317.1,20.5,318.4,20.3z"/>
									<path class="st2" d="M314.3,22.1c-1,0.6-1.8,1.1-2.6,1.7c1-0.6,1.9-1.1,2.8-1.7H314.3z"/>
									<path class="st2" d="M251.4,69.6c-0.8-1-2.3-3.1-3.9-4.9C248.4,66.1,250.5,68.7,251.4,69.6z"/>
									<polygon class="st2" points="247,64.5 248.7,67 249.1,67.2 									"/>
									<path class="st2" d="M112.2,46.7c0,0-1.9,0.6-3.8,1.1c-1,0.3-1.9,0.4-2.7,0.6c-0.8,0.1-1.2,0.3-1.2,0.3
										c-1.3-0.3-10.1,1.3-7.2,0.3c-2.3,0.8-5.9,0.8-8.6,1c-2.6,0.1-4.2,0.3-2.3,0.8c2.9-0.1,5.8-0.3,8.8-0.4
										c3-0.4,6.3-0.7,9.5-1.1c0.9-0.1,1.6-0.1,2.5-0.3c0.9-0.1,1.6-0.3,2.5-0.4c1.6-0.3,3.3-0.7,5-1c1.7-0.3,3.4-0.7,5.1-1
										l1.2-0.3l1.2-0.4c0.9-0.3,1.7-0.4,2.6-0.7c3.4-1,6.8-2,10.3-2.9l0.4-0.1c0.1,0,0.2,0,0.3-0.1h0.2l0.6-0.3l1.2-0.4
										c0.9-0.3,1.7-0.6,2.5-0.8c1.7-0.6,3.3-1.1,5-1.5c6.7-1.8,13.5-3.1,20-3.8c0,0-1,0.1-2.1,0.4c-1,0.1-2.1,0.4-2.1,0.4
										c6.7-1.1,11.3-0.8,15.6-0.6c4.3,0.4,8.2,0.7,13.7,0.7c0,0-0.4,0.1-0.8,0.4c-0.4,0.1-0.8,0.4-0.8,0.4
										c6.1,1.3,11.9,0.8,18,4.2l-0.6-0.6c1.7,0.6,2.3,1,4,1.7l-0.7-0.4c1.1,0.3,2.1,0.6,3,1c1,0.4,1.8,0.7,2.7,1.1
										c1.7,0.7,3.4,1.7,5.5,2.8c0.2,0.4-2-0.8-3.3-1.4c1,0.7,2.3,1.3,3.8,1.8c1.5,0.6,3.1,1.4,4.8,2.2c2.5,1.7-0.2,0.4-0.6,0.4
										c3.8,2,6.7,3.9,9.2,5.8c1.2,0.8,2.5,1.7,3.6,2.7c1.1,0.8,2.3,1.7,3.4,2.4v-0.3c0.1-0.1,0.2-0.4,0.3-0.4l0,0h-0.1l-0.2,0.1
										l-0.2,0.1l0,0l0,0l0.1,0.1c0.1,0.1,0.2,0.4,0.3,0.6c0.1,0.1,0.2,0.3,0.3,0.3l0.1,0.1l0.3,0.1c0.3,0.3,0.7,0.6,1,0.8
										c0.7,0.6,1.3,1.1,2,1.7c0.7,0.4-1.9-2.9,1.1,0.6c-0.8-1-1.4-2-2.2-2.8c-0.4-0.4-0.8-0.8-1.1-1.3l-0.6-0.6
										c-0.1-0.1-0.2-0.1-0.2-0.3c0-0.1-0.1-0.3-0.2-0.4l0,0c-2-1.5-3.9-2.9-5.9-4.2c-2-1.3-3.9-2.5-6.1-3.7l1.6,1
										c-4.9-1.4-3.3-2.7-11-6c1,0.1,2.4,0.8,3.6,1.4c1.2,0.6,2.4,1.1,3,1.4c-2.1-1.5-3.9-2.7-5.6-3.5c-1.7-0.8-3.1-1.4-4.6-2.1
										c-2.9-1.1-5.2-2-8.1-3.8l0.7,0.1c-0.7-0.3-1.6-0.7-2.6-1c-1-0.3-2.2-0.6-3.2-0.8c0.7,0.4,2.7,1.1,4,1.8
										c-2.1-0.6-3.2-0.3-4-0.3c-1.1-0.7-1.9-0.8-2.9-1s-2.1-0.3-3.9-1c-0.7-0.4,0.2-0.4,1.3-0.3c1.1,0.1,2.6,0.6,3.3,0.6
										c0,0-1.1-0.1-2.3-0.4c-0.6-0.1-1.1-0.1-1.5-0.3c-0.4,0-0.7-0.1-0.7-0.1c-4.1-1-4-1.5-6-2.2c-3.5-0.1,2,0.7-0.9,0.8
										c-2.2-0.8-8-1.8-14.4-2.1c-6.5-0.3-13.4,0.4-18,1.3c3.1-0.4,1-0.8,4.8-1c-1.3-0.1-6.2,0.8-6.2,1.4
										c-6.2,1.3-14.1,2.8-19.8,4.5l1.7-0.1c-0.6,0.3-1.2,0.6-1.9,0.8c-0.3,0.1-0.7,0.3-1,0.4c-0.2,0.1-0.4,0.1-0.5,0.3
										c-0.3,0.1-0.5,0.1-0.6,0.1c-1.5,0.4-3.1,0.8-4.9,1.3c-1.8,0.4-3.6,0.8-5.6,1.3c-1,0.3-2,0.6-3,0.8c-1,0.3-2.1,0.4-3.1,0.7
										h0.2c-2.8,0.7-5,2.2-10.2,3.1C109.7,47.7,112.4,47.2,112.2,46.7z"/>
									<path class="st2" d="M81.5,50.5c0,0,0.7-0.1,1.4-0.3c0.4,0,0.7-0.1,1-0.3c0.3,0,0.5-0.1,0.5-0.1c-0.8,0-1.6,0-2.4,0
										s-1.5,0.1-2.2,0.1c-1.3,0.1-2.1,0.4-1.8,0.7c2.1,0,4.8,0.4,5.2,0.1C83,50.6,83,50.5,81.5,50.5z"/>
									<path class="st2" d="M24.7,31.8c-1-0.7-0.9-0.3-1.3-0.4c5.6,4.2,12.1,8.1,17.9,10.5c1.4,0.7,2.9,1.3,4.1,1.8
										c1.3,0.4,2.6,1,3.7,1.4c1.1,0.4,2.2,0.8,3,1.1c0.5,0.1,0.9,0.3,1.2,0.6c0.4,0.1,0.8,0.3,1,0.3c2.1,0.6,3.3,0.7,4.7,0.8
										c0.7,0,1.4,0.1,2.3,0.1c0.9,0.1,1.9,0.1,3.2,0.3l2.3,1c1.4,0,4.3,0.6,6.5,0.7c2.2,0.1,3.5,0.1,2-0.6
										c-0.3-0.1-2.5,0.4-4.8-0.1l0.4-0.3l-5.6-0.7l1.8-0.1c-1.9-0.4-3.1-0.7-4.2-0.7c-1-0.1-1.7-0.1-2.5-0.1
										c-0.8,0-1.6,0-2.9-0.1c-0.6-0.1-1.3-0.3-2.2-0.4c-0.9-0.3-1.8-0.4-2.9-0.8l0.2-0.8c-3-1.1-5.3-1.8-7.5-2.7
										c-2.2-1-4.2-2-6.7-3.5c0,0-0.2,0.4,1,0.7c1,0.6,2.2,1.4,1.4,1.4c-2.3-0.8-3.3-1.3-3.7-1.5c-0.4-0.3-0.1-0.1,0.3-0.1
										c0.4,0.1,0.9,0.1,0.9-0.1c0-0.1-0.5-0.6-2-1.5c-3.8-1.8-9.4-4.8-14.2-8.7c-2.5-1.8-4.7-3.9-6.5-5.8
										c-1.9-1.7-3.3-3.4-4.2-4.5c1.4,1.8,1,1.7-0.4,0.6c-0.7-0.6-1.4-1.4-2.4-2.5c-0.9-1-1.8-2.1-2.7-3.4c-1.3-2.2,1.3,1.3,2,1.7
										c-0.8-1-1.4-2.1-2.1-3.1l-0.5-0.8c-0.3-0.3-0.6-0.7-0.8-1L4.4,9.9c0-0.1,0-0.3,0-0.4V8.6c0-0.3,0-0.6,0-0.8V7.2
										C4.3,7.9,4.3,8.3,4.3,8.7s-0.1,0.8-0.2,1C4,10.1,3.9,9.9,3.8,9c0-0.3,0-0.6-0.1-0.8c0-0.1,0-0.3,0-0.4
										c-0.1,0-0.1-0.1-0.1-0.3c0-0.4-0.1-1-0.1-1.5C3.4,4.8,3.3,3.3,3.2,1.4c-0.1,2-0.1,3.9-0.1,5.8c0,0.7,0,1.4,0,2.2v0.7v0.3
										c0,0.1,0.1,0.1,0.1,0.3l0.8,1c0.6,0.7,1.1,1.5,1.6,2.2c1,1.3,1.9,2.4,2.9,3.5l1.5,1.7c0.5,0.6,1,1,1.5,1.5
										C15.6,24.8,20,28,24.7,31.8z"/>
									<path class="st2" d="M21.7,30.2c1,0.7,1.4,1,1.7,1.1c-1.3-1-2.6-2.1-3.8-3.1L21.7,30.2z"/>
								</g>
							</g>
						</g>
					</g>
				</g>
			</g>
		</g>
		<g class="st3">
			<g>
				<defs>
					<path id="SVGID_3_" d="M5.3,1.4v7.7c13.1,19.1,50.6,56.2,130,30.9c0,0,53.8-24,106.9,19.1c0.3,0.3,0.1,0.4,0.4,0.7
						c5.3,4.8,11.2,16.4,18.9,18v-5.1h0.5c-0.9,0-2.3-0.8-3.1-0.4V72c0.9-2.7,2.5-4.4,3.5-6.5h-3.5v-1.8c0.9-2.7,2.7-5.5,4.5-8.3
						v0.1h-2.7c4.7-8.7,15.7-19.4,24.6-22.2c4.4-0.3,8.1-0.8,12.5-1.3c8.9-3.1,17-11.7,27.8-13.1v0.4c-2.7,7.9-7,11.7-11.2,17.4
						c-6.4,9-8.4,24.7-8.6,40.9c10.2-1.3,16.5-11.9,23.2-18c1-1,2.2-2,3.3-2.8C387.4,11.3,443.8,36,443.8,36
						C534.1,64.4,571,16.2,580,0.6c0,0-0.6,1,0.4,1L5.3,1.4z"/>
				</defs>
				<use xlink:href="#SVGID_3_"  style="overflow:visible;fill:#00418B;"/>
				<clipPath id="SVGID_4_">
					<use xlink:href="#SVGID_3_"  style="overflow:visible;"/>
				</clipPath>
				<g class="st4">
					<text transform="matrix(0.7128 0 0 1 2.5392 -2.018)" class="st2 st6 st7">1100100010111100101010100001010100000101001011110010001101010010110000011110100101001001001001000111100001010000101010110000001001000100100101001001001010001110100001111001010010100100000011001010100100001000010011111000010000101111000100010100100111001010010101000010000001111000000011100101010001001000000101</text>
					<text transform="matrix(0.7128 0 0 1 2.5392 5.4395)" class="st2 st6 st7">00100101000100001111000000111111100000101001010100011110000110100000111111110000001011110000000001111100101000111111111000001111000001111100000011111000011111000011100100100101001110010101010100011110010101010001000110110000101001010010100010101001000000001111110010000101010010100101010001000100010101000010</text>
					<text transform="matrix(0.7128 0 0 1 2.5392 12.8985)" class="st2 st6 st7">111110000001111010000111101000000110101001001011111000010101001010100011111100100101001001001111110010000011111101001010010101010010100001001111110000111000011101001010010111000101010100101010010000101010000101010101010100010101001010001111100001101001010010010010000110111010100101001010001001110000000000</text>
					<text transform="matrix(0.7128 0 0 1 2.5392 20.356)" class="st2 st6 st7">111111100000011110101010100001111000000000101000011110010101001000000101000000010000111100100001110000000111000001111000000100001110000100010010101010101111110010010101001010100101001000111100010101010010010010010101000001111100000011100010100101010010100000111100010100100000111110000001111000100101110</text>
					<text transform="matrix(0.7128 0 0 1 2.5392 27.6842)" class="st2 st6 st7">1111100000001110010101001010101001001001010011110001001111100000011110100101000000111110010101001010100100010000011111000001010100010000100001111000000111111100010001001001001000111100000000101000000110101001010101001001001000111110000010010101001010010101000110101010101000010000110000000001010000</text>
					<text transform="matrix(0.7128 0 0 1 2.5392 35.1417)" class="st2 st6 st7">11110001111100000111100010100011110000100101001010100100001111100000110101001001011000010010101000001111100010101010100100100101001001001001010011111111100010100101000011100010011100001111001010100000000011110001010100100001101010100010111000000100010100000111111000101010010100010100001000000000010100100100</text>
					<text transform="matrix(0.7128 0 0 1 2.5392 42.5992)" class="st2 st6 st7">1000011000111100000001100001000111101001010111000000001001010010100101001010111111000001000101010010101001010010100100100000011101110010010100100100010100000011110001010010001100001000000000011111000000001111100000111110000100010000010101010101001000000001111101010010100111100000000000000001000101001010101</text>
					<text transform="matrix(0.7128 0 0 1 2.5392 50.0582)" class="st2 st6 st7">11100011110001000100100101011100100101001000001111101010010010100001001001010100010111001010000100101001010010101000101010010000100101000000111000000001110001010101010010000011100001110000000010000010001010101010000001010101001010101000111100000010101001010000010000001000101110000010101010100101010100101000</text>
					<text transform="matrix(0.7128 0 0 1 2.5392 57.5157)" class="st2 st6 st7">11110000011100101010010100000111110000110101010010101000111100001100000110010100101010100011100000001111101010100101010010100010001001000111100000000000111100001111110000011110010101001001000101</text>
					<text transform="matrix(0.7128 0 0 1 2.5392 64.9732)" class="st2 st6 st7">11100001010101000111010001001111001010100101001010001010100101001011100010100001100010100010010101010001110000001101001010100100101010011100010101010010100011000101010001010010001111000</text>
					<text transform="matrix(0.7128 0 0 1 2.5392 72.4302)" class="st2 st6 st7">11</text>
					<text transform="matrix(0.7128 0 0 1 7.0299 72.4302)" class="st2 st6 st7 st8"> </text>
					<text transform="matrix(0.7128 0 0 1 29.027 72.4302)" class="st2 st6 st7 st9">         </text>
					<text transform="matrix(0.7128 0 0 1 267.6877 72.4302)" class="st2 st6 st7">111000111000100011100010000011110010101001010101000111000101001</text>
					<text transform="matrix(0.7128 0 0 1 2.5392 79.7608)" class="st2 st6 st7 st9">          </text>
					<text transform="matrix(0.7128 0 0 1 267.6877 79.7608)" class="st2 st6 st7">1110001001110010100100100100110000000000100011111001010010100100001001</text>
					<text transform="matrix(0.7128 0 0 1 2.5392 87.2178)" class="st2 st6 st7 st9">           </text>
					<text transform="matrix(0.7128 0 0 1 294.1735 87.2178)" class="st2 st6 st7">1110001000001000110101001010010010100001111000000101</text>
				</g>
			</g>
		</g>
	</g>
	<g>
		<g>
			<g>
				<defs>
					<path id="SVGID_5_" d="M5.3,1.4v7.7c13.1,19.1,50.6,56.2,130,30.9c0,0,53.8-24,106.9,19.1c0.3,0.3,0.1,0.4,0.4,0.7
						c5.3,4.8,11.2,16.4,18.9,18v-5.1h0.5c-0.9,0-2.3-0.8-3.1-0.4V72c0.9-2.7,2.5-4.4,3.5-6.5h-3.5v-1.8c0.9-2.7,2.7-5.5,4.5-8.3
						v0.1h-2.7c4.7-8.7,15.7-19.4,24.6-22.2c4.4-0.3,8.1-0.8,12.5-1.3c8.9-3.1,17-11.7,27.8-13.1v0.4c-2.7,7.9-7,11.7-11.2,17.4
						c-6.4,9-8.4,24.7-8.6,40.9c10.2-1.3,16.5-11.9,23.2-18c1-1,2.2-2,3.3-2.8C387.4,11.3,443.8,36,443.8,36
						C534.1,64.4,571,16.2,580,0.6c0,0-0.6,1,0.4,1L5.3,1.4z"/>
				</defs>
				<clipPath id="SVGID_6_">
					<use xlink:href="#SVGID_5_"  style="overflow:visible;"/>
				</clipPath>
			</g>
		</g>
	</g>
</g>
</svg>
