<?xml version="1.0" encoding="utf-8"?>
<!-- Generator: Adobe Illustrator 20.1.0, SVG Export Plug-In . SVG Version: 6.00 Build 0)  -->
<!DOCTYPE svg PUBLIC "-//W3C//DTD SVG 1.1//EN" "http://www.w3.org/Graphics/SVG/1.1/DTD/svg11.dtd">
<svg version="1.1" id="Layer_1" xmlns="http://www.w3.org/2000/svg" xmlns:xlink="http://www.w3.org/1999/xlink" x="0px" y="0px"
	 viewBox="0 0 860 75.6" style="enable-background:new 0 0 860 75.6;" xml:space="preserve">
<style type="text/css">
	.st0{opacity:0.96;}
	.st1{opacity:0.75;}
	.st2{fill:#00418B;}
	.st3{opacity:0.46;enable-background:new    ;}
	.st4{opacity:0.71;clip-path:url(#SVGID_4_);}
	.st5{enable-background:new    ;}
	.st6{font-family:'MyriadPro-Regular';}
	.st7{font-size:5.0035px;}
	.st8{letter-spacing:22.3;}
	.st9{letter-spacing:27.7;}
</style>
<g>
	<g>
		<g>
			<g>
				<defs>
					<path id="SVGID_1_" d="M8.1,0.5v6.2c19.3,15.4,74.5,45.3,191.5,24.9c0,0,79.2-19.4,157.5,15.4c0.4,0.2,0.1,0.3,0.6,0.6
						c7.8,3.9,16.5,13.3,27.9,14.5v-4.1h0.7c-1.3,0-3.4-0.7-4.6-0.3v-0.3c1.3-2.2,3.6-3.5,5.2-5.2h-5.2v-1.5
						c1.3-2.2,3.9-4.4,6.6-6.7v0.1h-3.9c6.9-7,23.1-15.6,36.3-17.9c6.4-0.2,11.9-0.7,18.3-1c13.2-2.5,25.1-9.4,41-10.5v0.3
						c-3.9,6.3-10.4,9.4-16.5,14.1c-9.4,7.3-12.3,20-12.6,33c15-1,24.4-9.6,34.2-14.5c1.5-0.8,3.2-1.6,4.9-2.3
						C570.8,8.5,654,28.4,654,28.4c133,22.9,187.3-16,200.6-28.6c0,0-0.8,0.8,0.6,0.8L8.1,0.5z"/>
				</defs>
				<clipPath id="SVGID_2_">
					<use xlink:href="#SVGID_1_"  style="overflow:visible;"/>
				</clipPath>
			</g>
		</g>
	</g>
	<g>
		<g class="st0">
			
				<image style="overflow:visible;opacity:0.86;enable-background:new    ;" width="633" height="82" xlink:href="../../../../stufff/logos/logo-ideas/raven/FB15592EC29D63D5.png"  transform="matrix(1.3998 0 0 1.1336 -8.9176 -11.5885)">
			</image>
			<g>
				<g class="st1">
					<g>
						<g>
							<g>
								<g>
									<polygon class="st2" points="8.1,0.3 13.3,0.5 15,0.1 									"/>
									<path class="st2" d="M33,2l9-0.2c-5.2-1.4,1.8-0.9-12.2-1.9c-5,0.2-16,0.7-14.4,1.2c3.5,0,8.7-0.6,14-0.5
										C27.2,1,21.6,1,18.9,1.6c8.5,0.5,5.3-0.3,14.7-0.1L33,2z"/>
									<path class="st2" d="M43.7,0.7c-0.8,0.2-1.8,0.5-1.7,0.7C43,1.1,47.3,0.9,43.7,0.7z"/>
									<path class="st2" d="M49,0.5c5.7,0-0.1,0.5,0.4,0.6L56,0.2L49,0.5z"/>
									<path class="st2" d="M72.7,0.7c1,0,1.8,0,2.7-0.1C74.5,0.4,73.6,0.5,72.7,0.7z"/>
									<path class="st2" d="M84.3,0.5c-2.4-0.3-5.3-0.1-9,0c0.1,0,0.1,0,0.4,0c3.2,0.2,0.1,0.9-5,0.7c-5.5,0.1-5-0.5-9.8-0.1
										l6.6,0.5C76,1.7,80.9,0.8,84.3,0.5z"/>
									<path class="st2" d="M72.7,0.7c-1,0-2,0-3.1,0C71,0.8,71.8,0.7,72.7,0.7z"/>
									<polygon class="st2" points="60.8,0.5 57.8,0.7 58.5,0.9 									"/>
									<path class="st2" d="M103.6,0.4C102.3,1.2,89.7,0.3,88.2,1c7.7,0,13.7,0.6,12,1l8.4-0.2C111.6,1.4,108.1,0.9,103.6,0.4z"/>
									<path class="st2" d="M120.1,2.6c0.6-0.1,1.3-0.1,2-0.1C121.2,2.5,120.4,2.6,120.1,2.6z"/>
									<path class="st2" d="M162.8,1.1L143.1,2c1.8-0.2,1.1-0.6,5.6-0.7c-8.7-0.1-9.8,0.5-17.1,0.3c-2.2-0.8,12.7-0.1,8.5-0.8
										c-5,0-12.7,0.1-16.8,0.7L115.2,1l2.8,0.9c3.2,0.2,6.6-0.7,8.5-0.1c1,0.3-2.2,0.5-4.6,0.6c5.5-0.1,14.6,0.8,25.1,0.7
										C158.2,2.9,155.5,1.6,162.8,1.1z"/>
									<polygon class="st2" points="163.6,2.1 164.9,2.5 164.1,2 									"/>
									<path class="st2" d="M185.2,1l-10.4,0.6c-1.1-0.1-1.7-0.2-2.5-0.5c0.4,0.2-2.4,0.6-2,0.7c4.8,0.8,12.6-0.2,18.1-0.3
										c14.6,0.3-0.7,0.5,5,1.1c-4.1,0-4.2-0.2-9.9-0.2c9,0.9,20.2,0.1,25.9-0.1c-1.7-0.1-2.1-0.3-5.2-0.2l5.9-0.2
										C204.1,1,198.9,0.9,185.2,1z"/>
									<path class="st2" d="M166.9,1c3.8-0.1,5.3,0,5.6,0.1C171.3,0.9,170.1,0.8,166.9,1z"/>
									<path class="st2" d="M212.6,2.1c-0.7,0-1.7,0-3.1,0C210.3,2.2,211.2,2.2,212.6,2.1z"/>
									<path class="st2" d="M206.8,1.2l7.3,0.1L211.2,1C210.1,1,206.6,1,206.8,1.2z"/>
									<path class="st2" d="M482.2,2.4c-0.7-0.3-3.4-0.5-8.8-0.5c0.7-0.5,7.8-0.3,11.2-0.6c-7.3-0.2,0.1-0.5-1.7-0.9
										c-8.3,0-11.9,0.6-20.6,0.5c0.4-0.1,0.3-0.3-0.8-0.5c-10.5,0.2-28.4,0.7-38.8,0.3c-9.9-0.1-17.4,0-28.1,0.2
										c-35.8-0.2-73.3,0.2-111.8-0.2l-5.5,0.8c-1.8-0.5-9.2,0-8.1-0.6c2.1,0.1,4.1,0,6.6,0c-8.4-0.6-22.1,0.1-31.9-0.1
										c1.1,0.1,2.8,0.9-0.3,1c0.8-0.9-11.8,0-14.6-1c-9.9-0.2-0.4,0.8-10.6,0.7c-1.1,0.6,9.9,0.2,11.8,0.7
										c-3.4,0.3-9.5-0.2-9,0.3c16.5,0.2,47.3-0.9,72.5-1.1L291,1.9c12.9-0.3,33.9-0.3,44.2,0.5c-2.4-0.5,19,0.2,17.2-0.8
										c3.2,0.2,4.3,0.2,9,0.3l1.3-0.3c6.6,0,5.6,0.6,13.2,0.6c-4.9-0.5,0.6-0.6,2.8-1c8.7,0.6,18.9,1,26.6,1.5
										c-0.6-0.1-1.3-0.3-3.9-0.6c5.3,0.1,4.3-0.3,5.7-0.5c5,0,4.6,0.6,4.3,0.9c9.4,0.2,13.4-1,20.4-0.6l-2.5-0.5
										c9.7-0.1,17.6,0.5,28.3,0.2c5.2,0.7-8.7,0.6-13.2,0.9c2.1,0.1,6.7,0.2,8.1,0.5c4.6-0.3,12.2-0.8,17.8-1.1
										C465,2.4,478.5,2.4,482.2,2.4z"/>
									<path class="st2" d="M452.7,2.8c-1.3,0.1-2.4,0.2-3.1,0.2c1,0,2-0.1,3.5,0C453.3,2.9,453.1,2.8,452.7,2.8z"/>
									<path class="st2" d="M482.2,2.4c0,0,0.1,0,0.3,0.1C483.5,2.5,483.1,2.5,482.2,2.4z"/>
									<path class="st2" d="M421.2,0.7c0.4,0,1,0,1.4,0c0.6,0,1.1,0,1.7,0H421.2z"/>
									<path class="st2" d="M413.2,2.9c-2.1-0.1-4.9-0.3-8.1-0.6C406.1,2.6,406.8,2.8,413.2,2.9z"/>
									<path class="st2" d="M348.6,2.4c-2,0.1-0.8,0.2-2.2,0.3C350.4,2.8,351.8,2.6,348.6,2.4z"/>
									<polygon class="st2" points="464.3,2.9 472.3,2.7 475.4,2.6 									"/>
									<path class="st2" d="M627.5,0.3C620.4-0.3,610,0.1,601.2,0c-16.1,0.3-2,1.2-17.2,1.4l2.7-1.2c-15.3,0.1-37-0.2-49.8,0.9
										c-1.1-0.1-3.8-0.3,0.1-0.5c-10.2,0-5.3,1.7-18.9,1.4c12.7-0.8-4.2-0.7-0.7-1.5l2-0.1c-8.7,0.1-20,0.5-25.8,0.5
										c-0.3,0.3,4.8,0.8-2.9,0.8c3.1,0.1,1.8,0.5,1.5,0.7c7.8-0.3,12.2-0.1,16.9-0.6c4.3,0.5-2.9,0.1,1.4,0.6l6.3-0.3
										c4.6,0.1-4.8,0.5,2.5,0.5c0.8-0.2,6.7-0.5,12.5-0.5L530.2,2c4.3-0.1,10.5,0,8.4-0.7l5.2,0.7L543,1.6
										c11.9,0.2,16.4,1.2,31.8,0.7c-3.6-0.1-0.3-0.3,1.7-0.5c-6.4-0.3-7.8,0.3-14,0.5c-0.8-0.5,9.4-1,2.1-1.2
										c8.1,0.6,15.3-0.1,18.8,1c9.7,0.1,13.4-0.5,23.4-0.2L606.1,2c1.8-0.8,8,0.3,15.4-0.5l-5.2-0.1c0.3-0.3,2.8-0.3,6.3-0.3
										c-0.4,0.1-0.4,0.1,0.7,0.2c1.1-0.6,12.2-0.7,13.6-0.8c-4.8-0.1-10.5,0.3-16,0.5C623.7,0.7,622.9,0.2,627.5,0.3z"/>
									<path class="st2" d="M527.2,2.4l3.1-0.2C529,2.1,527.9,2.1,527.2,2.4z"/>
									<path class="st2" d="M671.8,1.3c6.2,0.1-1.7,0.5,4.2,0.7c6.3-0.3-7.3-0.8-1.1-1.4c3.8,0.3,9.9-0.2,12.6-0.2
										c-2.8,0.3-1.1,1,0,1.1c2.4-0.2,7.8,0.1,11.9,0.2c-10.1-0.5,8.4-0.2-0.6-0.8c0.7-0.5,10.1-0.7,14-0.5
										c-0.6,0.3-3.6,0.3-6.2,0.3c-2.1,0.6,6.4,0.3,7.8,0.8c9.5-0.8,40.2-0.8,31.5-2c-3.4-0.2-6.2,0.1-9.7,0.1
										c9.9,0.2,0.1,0.7-0.8,0.9c-4.2-0.2-11.5,0.2-9.9-0.2l6.7-0.5c-21.6-0.2-51.1-0.1-76,0H667c-1.3,0.3-6.3,0.3-10.2,0.6
										l5.3,0.9c-3.1-0.1-6,0.1-5.7-0.2c-3.8,0.3-2.1,0.6,0.3,0.9c-8,0.1-9.4-0.2-15.5,0.3c13.3,0.7,11.3-0.6,26.6,0L671.8,1.3z"
										/>
									<polygon class="st2" points="642.5,1.8 645.7,1.3 640.8,1.6 									"/>
									<path class="st2" d="M647.7-0.1c0.1,0.2-1.8,0.2-1.7,0.5C652.2,0.4,651.5,0.2,647.7-0.1z"/>
									<path class="st2" d="M722.6,1.8l8-0.1l-5.2-0.1C725.5,1.7,723.7,1.7,722.6,1.8z"/>
									<path class="st2" d="M779-0.5c-11.2,0.1-16,0.5-28.6,0c-6.2,0.6,2.9,1,0.3,1.6c6.3,0.1,5.5-0.8,12-1
										c2.4,0.5,9.5-0.1,15.7,0C777.6,0,777.6-0.3,779-0.5z"/>
									<path class="st2" d="M817.3,1.3c5,0,10.2-0.3,14.3-0.1c-0.6,0.3-3.6,0.5-6.7,0.3c2,0.7,5.6-0.1,11.2,0.3
										c-0.4-0.1-2.5-0.2-1-0.3c6.9,0.1,8.8-0.1,11.2-0.2c0.8,0,1.8-0.1,3.4-0.1c0.8,0,1.7,0,2.8,0c0.1,0,0,0-0.1,0s-0.1,0-0.3,0
										c-0.1,0-0.3-0.2-0.1-0.2c0,0,0-0.1,0.1-0.1l0,0l-0.1,0c-0.1,0.1-0.3,0.2-0.4,0.3c-0.4,0.3-1,0.8-1.5,1.2
										c-1,1-2.5,2.3-1.7,2.3c-8,4.8-4.1,2.4-14.1,7.6c0.6,0.1,4.2-1.4,4.6-0.8c-7.3,3.7-11.1,5.4-14.3,6.8
										c-1.5,0.7-2.9,1.4-4.6,2c-1.7,0.6-3.6,1.2-6.2,2c1.1-0.5,2.4-1,5-1.9c-0.8-0.1-2.9,0.7-5.5,1.7c-1.3,0.5-2.7,1.1-4.2,1.7
										c-1.5,0.5-2.9,1-4.5,1.4l0.3-0.8c-2.7,0.8-6,2.2-9.9,2.9c-2,0.5-3.9,0.9-5.7,1.4c-1,0.2-2,0.5-2.8,0.6
										c-1,0.2-1.8,0.2-2.7,0.3l1.4-0.6c-3.5,0.7-7,1.4-10.8,2c-1,0.1-1.8,0.3-2.8,0.5l-2.8,0.3c-1.8,0.2-3.8,0.5-5.6,0.7
										c-1.8,0.2-3.6,0.5-5.5,0.7c-1.8,0.2-3.6,0.2-5.3,0.3c-3.5,0.2-6.9,0.5-9.8,0.7c0,0-1.7,0-3.2,0c-1.7-0.1-3.2-0.2-3.2-0.2
										c-8.4,0.2-4.2,0.3,0.6,0.5c2.4,0.1,4.9,0,6,0.1c1.1,0.1,1,0.2-2.1,0.7c-2-1.1-8.7,0.5-18.3,0c-4.5-0.5,9.7-0.2,4.8-0.8
										c-1.1,0.3-2.4,0.3-3.9,0.3c-0.8,0-1.7,0-2.8,0c-1-0.1-2.1-0.1-3.5-0.1c1.1-0.6-10.6-0.7-7.4-1.1c0,0-4.5,0-9,0.1
										c-4.5-0.1-9-0.3-9-0.3c-2.8-0.7-8-1.1-11.9-1.4c9.7,1-2.8,0.7,8,2c3.9,0.3,8.5,0.8,13.6,1.1c5,0.2,10.5,0.5,16,0.7
										c1.4,0,2.8,0.2,4.2,0.1h4.2c2.8,0,5.6,0,8.4,0c5.6,0.1,10.9-0.2,15.8-0.3c1-0.5,4.2-0.6,7.6-0.8c3.2-0.3,6.7-0.7,8.3-1.1
										c0.6,0.2,2,0.2,2.5,0.5c3.2-0.5,4.6-0.6,4.9-0.7c0.3-0.1-0.3,0-1.3,0c-2,0.1-5.2,0.3-3.6,0c1.4-0.2,2.7-0.3,3.9-0.5
										c1.3-0.1,2.2-0.2,3.1-0.3c1.8-0.1,2.8-0.1,2.5,0.1c9-1.5,1-0.3,5.5-1.6c0,0,1.5,0,3.1,0c0.8,0,1.5-0.1,2.1-0.1s1-0.1,1-0.1
										c5-1.2,10.5-2.4,16-4.3c5.5-1.6,10.9-3.7,16.5-6c2.7-1.2,5.5-2.4,8.1-3.7c1.3-0.7,2.7-1.4,3.9-2.2c1.3-0.7,2.7-1.4,3.9-2.2
										c2.5-1.6,5.2-3.1,7.6-4.8l1.8-1.2l0.8-0.7l1-0.7c1.3-1,2.5-1.9,3.6-2.9l1.8-1.9l0.3-0.2l0.1-0.1l0,0l0,0
										c0.3-0.1,0.1,0,0.1-0.1l0,0l0,0v0.1c0,0.1,0,0.2,0,0.2c0.1,0.1,0.3,0.1,0.6,0.2c0.1,0,0.3,0,0.3,0h0.1l-0.1,0.1l-0.1,0.1
										h-0.1h-0.1h-0.8c-1.1,0-2.1-0.1-3.2-0.1c-1.3,0-2.5,0-3.8,0c-4.5,0-8.8-0.1-13.2-0.1l2.5,0.6c-14.7-0.3-24.6,1.2-37.7,0
										l-4.5,0.5c2.4-0.2-2.5-0.9,1.3-1.2c-4.1,0.2-8.3,0-12.5,0.1l7.4,0.2c-5.2,0.5-10.8,0.2-12.6-0.2c-11.1,0.6,6.6,1,9,1.5
										c15.5-1,15.5,1,30.4,0.6C827,1.9,816.8,1.7,817.3,1.3z"/>
									<path class="st2" d="M798.2-0.3c-1,0-1.7,0.1-2.2,0.1C796.8-0.1,797.5-0.1,798.2-0.3z"/>
									<path class="st2" d="M679.6,31.8c-1.1-0.1-2.5-0.2-4.2-0.6c-0.7,0-0.6,0,0.3,0.1C676.4,31.5,677.8,31.7,679.6,31.8z"/>
									<polygon class="st2" points="778.3,0.1 778.3,0.1 778.4,0.1 									"/>
									<polygon class="st2" points="770.9,1.6 775.1,1.6 774.4,1.3 									"/>
									<path class="st2" d="M637,24.5l-0.1,0.3C637.3,24.7,637.6,24.7,637,24.5z"/>
									<path class="st2" d="M520.3,32.6l2.4-0.7C522,32.2,521.1,32.4,520.3,32.6z"/>
									<path class="st2" d="M380.6,57.5c0,0.1,0,0.1,0,0.2v0.9l1-0.2c0.3-0.1,0.7-0.1,1,0c0.3,0,0.7,0.1,1.1,0.1s1,0.1,1.5,0.1
										c-0.1,0-0.3,0-0.6,0l0,0c0,0.6,0,1.2,0.1,1.9c0,0.3,0,0.8,0,1.2c-0.6-0.1-1.1-0.1-1.7-0.2c-0.6-0.1-1.1-0.2-1.7-0.3
										c-0.6-0.2-1.3-0.3-1.8-0.5c-2.4-0.8-4.5-1.7-6-2.4h0.7c-3.5-1.6-13.9-8.5-7.8-3.5l1.8,0.9c3.9,2.4,5.5,3.2,6.6,4.1
										c1.3,0.8,2,1.7,5.7,3.1c1.7,0.3,3.4,0.7,4.9,0.9c0.4,0,0.7,0.1,1.1,0.1h0.3c0-0.1-0.1-0.2-0.1-0.3l-0.3-0.6
										c-0.3-0.8-0.6-1.6-0.8-2.3l1-0.3c0.3,0,0.1-0.1,0.1-0.2v-0.2c0-0.3,0-0.6,0-0.9v-0.2l-0.1-0.1l-0.3-0.2
										c-0.1-0.1-0.4-0.3-0.6-0.5l0,0c0.1,0.1,0.3,0.1,0.4,0.2c-0.4-0.1-0.8-0.5-1.3-0.9c-0.7,0-1.3-0.1-1.8-0.1
										c-0.6,0-1.1,0-1.7,0.1l1,0.6v-0.3l-0.1,0.2c0.8-1.6,2.5-2.9,4.3-4.5c0.3-0.2,0.4-0.5,0.6-0.6l0.7-0.7h-1.1
										c-2.1,0-1.4-0.3-0.7-0.5c-0.7,0-1.3,0-1.8,0c-0.3,0-0.6,0-0.8,0c-0.1,0-0.1,0-0.1-0.1v-0.1v-0.2c-0.1-0.3,0-0.7,0.3-1
										c0.1-0.3,0.4-0.7,0.6-1c0.1-0.1,0.3-0.3,0.4-0.6l0.4-0.6c0.3-0.3,0.7-0.8,1-1.1c0.7-0.8,1.5-1.6,2.4-2.4h-0.1v0.1l0.1-0.1
										h-0.1c-0.4-0.5-1.8-0.7-3.8-0.8l0.8,1.5c1.3-1,2.8-2.5,4.8-4c2-1.5,4.2-3.1,6.6-4.6c4.9-3.1,10.6-5.7,15.3-6.6
										c0.8-0.3,1.8-0.7,2.7-0.9c1-0.3,2-0.6,2.9-0.8c1-0.2,2.1-0.5,3.2-0.7c0.3-0.1,1-0.1,1.5-0.1c0.6,0,1.1-0.1,1.8-0.1
										c4.8-0.2,9.7-0.6,14.6-1.1c-1.3,0.2-1.4,0.3-0.7,0.3c0.3,0,0.7,0,1.4,0c0.7-0.1,1.3-0.2,2-0.3c2.7-0.6,5.6-1.4,4.6-0.8
										c0.6-0.5,2.5-1.1,5-2s5.7-1.9,9-2.9c3.2-1,6.4-1.9,8.8-2.6c1.3-0.3,2.2-0.7,3.1-0.9c0.8-0.2,1.3-0.6,1.5-0.8
										c2.9-0.5,4.3-0.5,5-0.6c0.7,0,1-0.1,1.1-0.1c0.1,0,0.1,0,0.1,0.1c0,0,0,0.1,0,0.2c-0.1,0.2-0.4,0.7-1,1.5
										c-0.3,0.5-0.7,0.9-1.3,1.5c-0.6,0.6-1.3,1.2-2.2,2c-0.1-0.1,0.3-0.5,0.8-1c0.4-0.5,0.8-0.9,1-1.1c-0.8,0.8-1.7,1.5-2.4,2.2
										c-0.8,0.8-1.5,1.4-2.2,2c-1.5,1.2-3.1,2.4-5.2,3.4c-4.8,3.2-4.9,3.7-4.6,3.7c0.1,0,0.4,0,0.3,0.2c-0.1,0.2-0.6,0.7-1.5,1.9
										c-2,1.9-3.1,3.5-3.8,4.5c-0.8,1.1-1.3,1.8-1.5,2.4c-0.4,0.6-0.7,1-1.1,1.6c-0.4,0.6-1,1.5-1.7,2.7c0.3,0.6-0.1,2.3-0.6,4.5
										c-0.4,2.3-0.8,5-0.8,7.6c0.1-1.2,1.5-8.2,1.1-3.6c-0.6,2.9-0.7,5-0.7,6.7c0,0.3,0,0.8,0,1.1c0,0.2,0,0.6,0,0.8
										c0,0.5,0.1,0.9,0.1,1.2c0.6-0.1,1.1-0.2,1.5-0.2c0.3,0,0.6-0.1,0.7-0.2c0.1,0,0.3-0.1,0.4-0.1c0.1,0,0.4-0.1,0.7-0.1
										c1.8-0.5,3.9-1,7-2.2c3.2-0.8,0.3,0.5-2.2,1.2c-1.3,0.5-2.4,0.7-2.5,0.7c-0.1,0,0.8,0,3.6-0.7c-2,0.7-3.9,1.4-5.7,1.7
										c-1,0.2-1.7,0.3-2.5,0.5c-0.4,0.1-0.8,0.1-1.3,0.2h-0.3h-0.1v-0.1v-0.5c0-1.4-0.1-2.5-0.1-3.6c0-1.1-0.1-2.2-0.1-3.2
										c-0.1,1.1-0.3,2.4-0.3,3.6v0.9c0,0.3,0,0.8,0,1.1c0,0.8,0,1.5,0,2.3c0,0.1,0,0,0.1,0h0.1h0.4l0.7-0.1l1.4-0.1
										c1-0.1,2-0.3,2.7-0.5c1.7-0.3,3.2-0.7,4.8-1.2c6.3-2,11.8-5.4,16.7-8.6c5.7-3.3-2.7,2,2-0.6c2.7-1.5,4.9-2.7,7-3.9
										c2.2-1.1,4.1-2.2,6-3.2c2-0.9,3.8-1.9,5.7-2.8c2-0.8,4.1-1.7,6.4-2.5l-1.7,1.1c0.7-0.3,1.4-0.7,2.4-1.1
										c1-0.3,2-0.8,3.2-1.2c1.1-0.5,2.4-0.9,3.8-1.4c1.4-0.5,2.8-0.9,4.2-1.4c5.9-1.8,12.6-3.5,18.1-5c-1.5,0.1-2.5,0.2-1.1-0.3
										c0.1,0.6,3.9-0.5,9.4-1.8c5.3-1.2,12.2-2.7,18.1-2.9c-1.1-0.7,10.1-2.4,17.2-2.9c2.5,0,2.1,0.3,2,0.6c-2.9,0-5,0.2-6.9,0.5
										c-1.7,0.2-3.1,0.5-4.3,0.7c-2.5,0.6-4.6,1.1-9.1,1.9c3.8-0.7,8.8-1.2,13.7-1.7c2.5-0.2,4.9-0.5,7.1-0.6
										c2.2-0.2,4.3-0.3,5.9-0.6l-2.5,0.7c2.7-0.1,4.6-0.2,6.2-0.3c1.5-0.1,2.7-0.3,3.9-0.5c2.4-0.3,4.9-0.6,10.4-0.2l-1.1,0.3
										c11.2,0.1,23.4,1.1,34.9,2.8c5.7,0.8,11.2,1.8,16.5,2.8c5.3,0.7,10.2,1.4,14.7,1.8c1.5-0.1-7.1-2.3-7.6-2.6
										c-2.7-0.3-5-0.6-7.3-0.8c-0.4,0-1-0.1-1.5-0.2c-0.6-0.1-1.1-0.1-1.5-0.2c-1-0.1-2-0.2-2.9-0.5c-3.9-0.5-7.6-0.8-11.6-1.1
										l0.3-0.7c-2,0.1-11.8-0.6-6.4,0.3c-3.4-0.2-4.6-0.5-5.9-0.7c-1.4-0.2-2.8-0.6-6.7-0.6c0.7-0.7,5.3-0.3,5.5-0.9
										c0,0-1.7,0-3.4-0.1c-1.7,0-3.4,0-3.4,0c2.1-0.1-3.9-0.5-2-0.6c-6.3,0.1-10.5-0.1-15-0.2c-2.2-0.1-4.3-0.1-6.9-0.1
										s-5.2,0.1-8.4,0.3c0,0,1.8,0,3.6-0.1c1.8,0,3.6,0,3.6,0c0,0.3-4.2,0.5-7.3,0.7c-1.8-0.2-3.2-0.2-4.9-0.2
										c-1.8,0-3.9,0.1-7.3,0.3c-5.6,0.8-8.7,1.8-16.2,2.8c0.7-0.5-2.4-0.1-6,0.3c-3.5,0.6-7.4,1.2-8.1,1
										c-0.7,0.6-4.3,1.4-7.8,2.2c-3.5,0.9-6.9,1.7-7.3,2c-2,0.6-4.2,1.2-6,1.7c-1.8,0.5-3.2,0.8-3.2,0.6c0.6-0.2,1.7-0.7,2.8-1
										c0,0-1,0.2-2,0.6c-1,0.3-2,0.6-2,0.6c0.3-0.2,0.1-0.2,0.6-0.3c-1.7,0.6-2.5,0.9-3.5,1.4c-1,0.3-2.1,0.8-4.3,1.4
										c0-0.2,2.2-1,4.2-1.7c-2.4,0.7-4.3,1.5-6.3,2.3c-1,0.5-2,0.8-2.9,1.1c-1,0.5-1.8,0.8-2.7,1.2c-1.8,0.8-3.5,1.6-5.3,2.3
										c-1.7,0.8-3.5,1.5-5.5,2.2c-0.3,0.2-1.1,0.7-2.2,1.2c-1,0.6-2.2,1.2-3.4,1.8c-2.2,1.2-3.9,2.5-2.7,2.2
										c-2.7,1.1-2.2,0.1-8.7,4.2c-1.7,1.4-3.5,2.4-5.6,3.4c-2.1,1-4.5,1.9-7.1,3.1c1.8-0.8,2.7-1.2,2.9-1.5
										c0.4-0.2,0.4-0.2,0.3-0.2c-0.1,0-0.3,0.1,2.5-1.6c-2.4,1-5.2,2.5-8.7,3.6c-0.8,0.2-1.8,0.6-2.8,0.8c-0.4,0.1-1,0.2-1.4,0.3
										c-0.3,0.1-0.6,0.1-1,0.2c-0.3,0-0.7,0.1-1,0.1c-0.3,0.1-0.1-0.1-0.1-0.2v-0.5c0-0.6,0-1,0.1-2.2c0.3-0.8,0.4-0.8,0.7-1.6
										c0-2.8-0.3-6.2,1.1-8.8l-0.7,0.2c0.7-2.6,1.7-5.7,3.2-8.5c1.5-2.9,3.6-5.7,6-7.6c0,0,0-0.1,0.1-0.2s0.3-0.3,0.6-0.6
										c0.4-0.5,1-1.1,1.7-1.8c1.3-1.2,2.7-2.5,2.7-2.5c2.7-1.5,5.5-3.2,8-5.3c0.3-0.2,0.7-0.6,1-0.8l0.4-0.5
										c0.1-0.1,0.4-0.3,0.6-0.6l1.1-1.1c0.3-0.3,0.6-0.8,1-1.1c0.3-0.5,0.4-0.8,0.7-1.1c0.3-0.3,0.3-0.7,0.4-1
										c0.1-0.3,0.3-0.7,0.1-1c-0.3-0.1-0.7-0.1-1-0.2c-7.3,0.9-11.1,2.3-14.6,3.6c-3.9,1-9.5,2.8-9.7,2.6c0.8-0.3,2.2-1,3.9-1.7
										c-2.8,0.9-5.9,1.8-8.7,2.7s-5.2,1.7-6.7,2.5c-2.8,0.9-4.1,0.9-4.9,1c-0.6,0-0.7-0.1-1.4-0.1c-0.6,0-1.4-0.1-2.5,0
										c-3.1,0.5-6.9,0.7-10.9,0.9c-1,0-2.1,0.1-3.1,0.1h-0.8c-0.3,0-0.6,0.1-0.8,0.1l-1.5,0.3c-1,0.2-2.1,0.5-3.1,0.7
										c-1,0.2-2,0.6-2.9,0.8c-7.7,2.4-13.7,5.6-14.7,7c4.2-2.3,12.7-6.1,22.1-8c-2.4,0.7-0.4,0.6-3.8,1.4
										c-4.5,1.2-7.8,2.5-11.1,3.7c-3.2,1.4-6.4,2.8-10.2,5.2l0.1-1.4c-4.3,2.2-8.1,4.9-11.2,8l-1.3,1.4l2.1-0.1
										c1.3,0,2.7-0.1,3.9-0.1h0.8v-0.7V44l-0.1-1.7l-1.4,1.2c-1,0.9-2.1,1.9-3.1,2.8c-0.4,0.5-1,1-1.4,1.5
										c-0.6,0.6-1,1.1-1.4,1.7c-0.1,0.3-0.3,0.6-0.6,0.8c0,0.1-0.1,0.2-0.1,0.5v0.5v0.9v0.1h0.1h0.3h0.6c1.5,0,3.1,0,4.5,0
										l-0.3-0.3c-1.8,1.7-4.1,3.1-5.7,5V57v0.2L380.6,57.5z"/>
									<path class="st2" d="M469.2,15.7c0,0-0.4,0.1-1.1,0.1c-0.7,0.1-1.5,0.2-2.4,0.5c-1.7,0.3-3.5,0.7-3.5,0.7l0.8,0.2
										C465.2,16.5,467.3,16,469.2,15.7z"/>
									<path class="st2" d="M463.2,17.2c-1.4,0.5-2.7,0.9-3.8,1.4c1.4-0.5,2.8-0.9,4.1-1.4H463.2z"/>
									<path class="st2" d="M370.5,55.5c-1.1-0.8-3.4-2.5-5.7-4C366.2,52.7,369.3,54.8,370.5,55.5z"/>
									<polygon class="st2" points="364.1,51.4 366.6,53.5 367.2,53.6 									"/>
									<path class="st2" d="M165.5,37c0,0-2.8,0.5-5.6,0.9c-1.4,0.2-2.8,0.3-3.9,0.5c-1.1,0.1-1.8,0.2-1.8,0.2
										c-2-0.2-14.8,1-10.6,0.2c-3.4,0.7-8.7,0.7-12.6,0.8c-3.8,0.1-6.2,0.2-3.4,0.7c4.2-0.1,8.5-0.2,13-0.3
										c4.5-0.3,9.2-0.6,14-0.9c1.3-0.1,2.4-0.1,3.6-0.2c1.3-0.1,2.4-0.2,3.6-0.3c2.4-0.2,4.9-0.6,7.4-0.8c2.5-0.2,5-0.6,7.6-0.8
										l1.8-0.2l1.8-0.3c1.3-0.2,2.5-0.3,3.8-0.6c5-0.8,10.1-1.6,15.1-2.4l0.6-0.1c0.1,0,0.3,0,0.4-0.1h0.3l0.8-0.2l1.8-0.3
										c1.3-0.2,2.5-0.5,3.6-0.7c2.5-0.5,4.9-0.9,7.4-1.2c9.9-1.5,19.9-2.5,29.4-3.1c0,0-1.5,0.1-3.1,0.3
										c-1.5,0.1-3.1,0.3-3.1,0.3c9.8-0.9,16.7-0.7,23-0.5c6.3,0.3,12,0.6,20.2,0.6c0,0-0.6,0.1-1.1,0.3c-0.6,0.1-1.1,0.3-1.1,0.3
										c9,1,17.5,0.7,26.5,3.4l-0.8-0.5c2.5,0.5,3.4,0.8,5.9,1.4l-1-0.3c1.7,0.2,3.1,0.5,4.5,0.8c1.4,0.3,2.7,0.6,3.9,0.9
										c2.5,0.6,5,1.4,8.1,2.3c0.3,0.3-2.9-0.7-4.9-1.1c1.4,0.6,3.4,1,5.6,1.5c2.2,0.5,4.6,1.1,7,1.8c3.6,1.4-0.3,0.3-0.8,0.3
										c5.6,1.6,9.8,3.2,13.6,4.6c1.8,0.7,3.6,1.4,5.3,2.2c1.7,0.7,3.4,1.4,5,1.9V48c0.1-0.1,0.3-0.3,0.4-0.3l0,0h-0.1l-0.3,0.1
										l-0.3,0.1l0,0l0,0l0.1,0.1c0.1,0.1,0.3,0.3,0.4,0.5s0.3,0.2,0.4,0.2l0.1,0.1l0.4,0.1c0.4,0.2,1,0.5,1.4,0.7
										c1,0.5,2,0.9,2.9,1.4c1,0.3-2.8-2.4,1.7,0.5c-1.1-0.8-2.1-1.6-3.2-2.3c-0.6-0.3-1.1-0.7-1.7-1l-0.8-0.5
										c-0.1-0.1-0.3-0.1-0.3-0.2s-0.1-0.2-0.3-0.3l0,0c-2.9-1.2-5.7-2.4-8.7-3.4c-2.9-1-5.7-2-9-2.9l2.4,0.8
										c-7.3-1.1-4.9-2.2-16.2-4.9c1.5,0.1,3.5,0.7,5.3,1.1c1.8,0.5,3.5,0.9,4.5,1.1c-3.1-1.2-5.7-2.2-8.3-2.8
										c-2.5-0.7-4.6-1.1-6.7-1.7c-4.2-0.9-7.7-1.6-11.9-3.1l1,0.1c-1-0.2-2.4-0.6-3.8-0.8c-1.5-0.2-3.2-0.5-4.8-0.7
										c1,0.3,3.9,0.9,5.9,1.5c-3.1-0.5-4.8-0.2-5.9-0.2c-1.7-0.6-2.8-0.7-4.2-0.8s-3.1-0.2-5.7-0.8c-1-0.3,0.3-0.3,2-0.2
										c1.7,0.1,3.8,0.5,4.9,0.5c0,0-1.7-0.1-3.4-0.3c-0.8-0.1-1.7-0.1-2.2-0.2c-0.6,0-1-0.1-1-0.1c-6-0.8-5.9-1.2-8.8-1.8
										c-5.2-0.1,2.9,0.6-1.3,0.7c-3.2-0.7-11.8-1.5-21.3-1.7s-19.7,0.3-26.5,1c4.6-0.3,1.5-0.7,7.1-0.8c-2-0.1-9.1,0.7-9.1,1.1
										c-9.1,1-20.7,2.3-29.1,3.6l2.5-0.1c-0.8,0.2-1.8,0.5-2.8,0.7c-0.4,0.1-1,0.2-1.5,0.3c-0.3,0.1-0.6,0.1-0.7,0.2
										c-0.4,0.1-0.7,0.1-0.8,0.1c-2.2,0.3-4.6,0.7-7.3,1c-2.7,0.3-5.3,0.7-8.3,1c-1.4,0.2-2.9,0.5-4.5,0.7
										c-1.5,0.2-3.1,0.3-4.6,0.6h0.3c-4.1,0.6-7.4,1.8-15,2.5C161.8,37.8,165.9,37.5,165.5,37z"/>
									<path class="st2" d="M120.4,40.1c0,0,1-0.1,2.1-0.2c0.6,0,1-0.1,1.4-0.2c0.4,0,0.7-0.1,0.7-0.1c-1.1,0-2.4,0-3.5,0
										s-2.2,0.1-3.2,0.1c-2,0.1-3.1,0.3-2.7,0.6c3.1,0,7.1,0.3,7.7,0.1C122.5,40.2,122.5,40.1,120.4,40.1z"/>
									<path class="st2" d="M36.7,25c-1.5-0.6-1.3-0.2-2-0.3c8.3,3.4,17.8,6.6,26.3,8.5c2.1,0.6,4.2,1,6,1.5
										c2,0.3,3.8,0.8,5.5,1.1c1.7,0.3,3.2,0.7,4.5,0.9c0.7,0.1,1.3,0.2,1.8,0.5c0.6,0.1,1.1,0.2,1.5,0.2c3.1,0.5,4.9,0.6,6.9,0.7
										c1,0,2.1,0.1,3.4,0.1c1.3,0.1,2.8,0.1,4.8,0.2l3.4,0.8c2.1,0,6.3,0.5,9.5,0.6c3.2,0.1,5.2,0.1,2.9-0.5
										c-0.4-0.1-3.6,0.3-7.1-0.1l0.6-0.2l-8.3-0.6l2.7-0.1c-2.8-0.3-4.6-0.6-6.2-0.6c-1.5-0.1-2.5-0.1-3.6-0.1
										c-1.1,0-2.4,0-4.2-0.1c-0.8-0.1-2-0.2-3.2-0.3c-1.3-0.2-2.7-0.3-4.3-0.7l0.3-0.7c-4.5-0.9-7.8-1.5-11.1-2.2
										c-3.2-0.8-6.2-1.6-9.9-2.8c0,0-0.3,0.3,1.4,0.6c1.4,0.5,3.2,1.1,2.1,1.1c-3.4-0.7-4.9-1-5.5-1.2c-0.6-0.2-0.1-0.1,0.4-0.1
										c0.6,0.1,1.3,0.1,1.3-0.1c0-0.1-0.7-0.5-2.9-1.2c-5.6-1.5-13.9-3.9-20.9-7c-3.6-1.5-6.9-3.2-9.5-4.6
										c-2.8-1.4-4.9-2.7-6.2-3.6c2.1,1.5,1.4,1.4-0.6,0.5c-1-0.5-2.1-1.1-3.5-2c-1.3-0.8-2.7-1.7-3.9-2.7c-2-1.8,2,1,2.9,1.4
										C10.8,10.7,9.8,9.8,8.8,9L8.1,8.4C7.7,8.1,7.3,7.8,7,7.6L6.7,7.3c0-0.1,0-0.2,0-0.3V6.3c0-0.2,0-0.5,0-0.7V5.2
										C6.6,5.8,6.6,6.1,6.6,6.4c0,0.3-0.1,0.7-0.3,0.8C6.2,7.6,6,7.3,5.9,6.7c0-0.2,0-0.5-0.1-0.7c0-0.1,0-0.2,0-0.3
										c-0.1,0-0.1-0.1-0.1-0.2c0-0.3-0.1-0.8-0.1-1.2C5.3,3.3,5.2,2,5.1,0.5C4.9,2.1,4.9,3.7,4.9,5.2c0,0.6,0,1.1,0,1.8v0.6v0.2
										c0,0.1,0.1,0.1,0.1,0.2l1.1,0.8c0.8,0.6,1.7,1.2,2.4,1.8c1.4,1,2.8,1.9,4.3,2.8l2.2,1.4c0.7,0.5,1.5,0.8,2.2,1.2
										C23.3,19.4,29.7,22,36.7,25z"/>
									<path class="st2" d="M32.2,23.8c1.4,0.6,2.1,0.8,2.5,0.9c-2-0.8-3.8-1.7-5.6-2.5L32.2,23.8z"/>
								</g>
							</g>
						</g>
					</g>
				</g>
			</g>
		</g>
		<g class="st3">
			<g>
				<defs>
					<path id="SVGID_3_" d="M8.1,0.5v6.2c19.3,15.4,74.5,45.3,191.5,24.9c0,0,79.2-19.4,157.5,15.4c0.4,0.2,0.1,0.3,0.6,0.6
						c7.8,3.9,16.5,13.3,27.9,14.5v-4.1h0.7c-1.3,0-3.4-0.7-4.6-0.3v-0.3c1.3-2.2,3.6-3.5,5.2-5.2h-5.2v-1.5
						c1.3-2.2,3.9-4.4,6.6-6.7v0.1h-3.9c6.9-7,23.1-15.6,36.3-17.9c6.4-0.2,11.9-0.7,18.3-1c13.2-2.5,25.1-9.4,41-10.5v0.3
						c-3.9,6.3-10.4,9.4-16.5,14.1c-9.4,7.3-12.3,20-12.6,33c15-1,24.4-9.6,34.2-14.5c1.5-0.8,3.2-1.6,4.9-2.3
						C570.8,8.5,654,28.4,654,28.4c133,22.9,187.3-16,200.6-28.6c0,0-0.8,0.8,0.6,0.8L8.1,0.5z"/>
				</defs>
				<use xlink:href="#SVGID_3_"  style="overflow:visible;fill:#00418B;"/>
				<clipPath id="SVGID_4_">
					<use xlink:href="#SVGID_3_"  style="overflow:visible;"/>
				</clipPath>
				<g class="st4">
					<text transform="matrix(1.3008 0 0 1 4.029 -2.2489)" class="st2 st6 st7">1100100010111100101010100001010100000101001011110010001101010010110000011110100101001001001001000111100001010000101010110000001001000100100101001001001010001110100001111001010010100100000011001010100100001000010011111000010000101111000100010100100111001010010101000010000001111000000011100101010001001000000101</text>
					<text transform="matrix(1.3008 0 0 1 4.029 3.7697)" class="st2 st6 st7">00100101000100001111000000111111100000101001010100011110000110100000111111110000001011110000000001111100101000111111111000001111000001111100000011111000011111000011100100100101001110010101010100011110010101010001000110110000101001010010100010101001000000001111110010000101010010100101010001000100010101000010</text>
					<text transform="matrix(1.3008 0 0 1 4.029 9.7892)" class="st2 st6 st7">111110000001111010000111101000000110101001001011111000010101001010100011111100100101001001001111110010000011111101001010010101010010100001001111110000111000011101001010010111000101010100101010010000101010000101010101010100010101001010001111100001101001010010010010000110111010100101001010001001110000000000</text>
					<text transform="matrix(1.3008 0 0 1 4.029 15.8078)" class="st2 st6 st7">111111100000011110101010100001111000000000101000011110010101001000000101000000010000111100100001110000000111000001111000000100001110000100010010101010101111110010010101001010100101001000111100010101010010010010010101000001111100000011100010100101010010100000111100010100100000111110000001111000100101110</text>
					<text transform="matrix(1.3008 0 0 1 4.029 21.7228)" class="st2 st6 st7">1111100000001110010101001010101001001001010011110001001111100000011110100101000000111110010101001010100100010000011111000001010100010000100001111000000111111100010001001001001000111100000000101000000110101001010101001001001000111110000010010101001010010101000110101010101000010000110000000001010000</text>
					<text transform="matrix(1.3008 0 0 1 4.029 27.7413)" class="st2 st6 st7">11110001111100000111100010100011110000100101001010100100001111100000110101001001011000010010101000001111100010101010100100100101001001001001010011111111100010100101000011100010011100001111001010100000000011110001010100100001101010100010111000000100010100000111111000101010010100010100001000000000010100100100</text>
					<text transform="matrix(1.3008 0 0 1 4.029 33.7599)" class="st2 st6 st7">1000011000111100000001100001000111101001010111000000001001010010100101001010111111000001000101010010101001010010100100100000011101110010010100100100010100000011110001010010001100001000000000011111000000001111100000111110000100010000010101010101001000000001111101010010100111100000000000000001000101001010101</text>
					<text transform="matrix(1.3008 0 0 1 4.029 39.7804)" class="st2 st6 st7">11100011110001000100100101011100100101001000001111101010010010100001001001010100010111001010000100101001010010101000101010010000100101000000111000000001110001010101010010000011100001110000000010000010001010101010000001010101001010101000111100000010101001010000010000001000101110000010101010100101010100101000</text>
					<text transform="matrix(1.3008 0 0 1 4.029 45.799)" class="st2 st6 st7">11110000011100101010010100000111110000110101010010101000111100001100000110010100101010100011100000001111101010100101010010100010001001000111100000000000111100001111110000011110010101001001000101</text>
					<text transform="matrix(1.3008 0 0 1 4.029 51.8175)" class="st2 st6 st7">11100001010101000111010001001111001010100101001010001010100101001011100010100001100010100010010101010001110000001101001010100100101010011100010101010010100011000101010001010010001111000</text>
					<text transform="matrix(1.3008 0 0 1 4.029 57.8361)" class="st2 st6 st7">11</text>
					<text transform="matrix(1.3008 0 0 1 10.6432 57.8361)" class="st2 st6 st7 st8"> </text>
					<text transform="matrix(1.3008 0 0 1 43.0397 57.8361)" class="st2 st6 st7 st9">         </text>
					<text transform="matrix(1.3008 0 0 1 394.5417 57.8361)" class="st2 st6 st7">111000111000100011100010000011110010101001010101000111000101001</text>
					<text transform="matrix(1.3008 0 0 1 4.029 63.7521)" class="st2 st6 st7 st9">          </text>
					<text transform="matrix(1.3008 0 0 1 394.5417 63.7521)" class="st2 st6 st7">1110001001110010100100100100110000000000100011111001010010100100001001</text>
					<text transform="matrix(1.3008 0 0 1 4.029 69.7706)" class="st2 st6 st7 st9">           </text>
					<text transform="matrix(1.3008 0 0 1 433.5524 69.7706)" class="st2 st6 st7">1110001000001000110101001010010010100001111000000101</text>
				</g>
			</g>
		</g>
	</g>
	<g>
		<g>
			<g>
				<defs>
					<path id="SVGID_5_" d="M8.1,0.5v6.2c19.3,15.4,74.5,45.3,191.5,24.9c0,0,79.2-19.4,157.5,15.4c0.4,0.2,0.1,0.3,0.6,0.6
						c7.8,3.9,16.5,13.3,27.9,14.5v-4.1h0.7c-1.3,0-3.4-0.7-4.6-0.3v-0.3c1.3-2.2,3.6-3.5,5.2-5.2h-5.2v-1.5
						c1.3-2.2,3.9-4.4,6.6-6.7v0.1h-3.9c6.9-7,23.1-15.6,36.3-17.9c6.4-0.2,11.9-0.7,18.3-1c13.2-2.5,25.1-9.4,41-10.5v0.3
						c-3.9,6.3-10.4,9.4-16.5,14.1c-9.4,7.3-12.3,20-12.6,33c15-1,24.4-9.6,34.2-14.5c1.5-0.8,3.2-1.6,4.9-2.3
						C570.8,8.5,654,28.4,654,28.4c133,22.9,187.3-16,200.6-28.6c0,0-0.8,0.8,0.6,0.8L8.1,0.5z"/>
				</defs>
				<clipPath id="SVGID_6_">
					<use xlink:href="#SVGID_5_"  style="overflow:visible;"/>
				</clipPath>
			</g>
		</g>
	</g>
</g>
</svg>
